<svg width="109" height="103" xmlns="http://www.w3.org/2000/svg" xmlns:xlink="http://www.w3.org/1999/xlink" viewBox="0 0 103.72 101.9"><defs><linearGradient id="a" y1="50.67" x2="101.35" y2="50.67" gradientUnits="userSpaceOnUse"><stop offset="0.3" stop-color="#509fd8"/><stop offset="0.7" stop-color="#48c1ef"/></linearGradient><linearGradient id="b" x1="-520.82" y1="-505.03" x2="-490.23" y2="-505.03" gradientTransform="matrix(1, -0.07, 0.08, 0.99, 629.15, 519.58)" gradientUnits="userSpaceOnUse"><stop offset="0" stop-color="#3463ac"/><stop offset="1" stop-color="#1e2a4e"/></linearGradient><linearGradient id="c" x1="-520.82" y1="-505.03" x2="-490.23" y2="-505.03" gradientTransform="matrix(1, -0.07, 0.08, 0.99, 629.15, 519.58)" gradientUnits="userSpaceOnUse"><stop offset="0" stop-color="#0c4597"/><stop offset="0.32" stop-color="#3463ac"/><stop offset="0.66" stop-color="#a4c3e7"/><stop offset="1" stop-color="#3463ac"/></linearGradient><linearGradient id="d" x1="-764.98" y1="-205.97" x2="-746.8" y2="-205.97" gradientTransform="matrix(0.96, 0.28, -0.28, 0.96, 756.15, 463.09)" gradientUnits="userSpaceOnUse"><stop offset="0" stop-color="#85aadb"/><stop offset="0.56" stop-color="#d6e3f6"/><stop offset="0.79" stop-color="#fff"/><stop offset="1" stop-color="#85aadb"/></linearGradient><linearGradient id="e" x1="-496.62" y1="-484.9" x2="-490" y2="-484.9" gradientTransform="matrix(1, -0.07, 0.08, 0.99, 629.15, 519.58)" gradientUnits="userSpaceOnUse"><stop offset="0" stop-color="#213a74"/><stop offset="1" stop-color="#1d4a9a"/></linearGradient><linearGradient id="f" x1="-740.86" y1="-191.37" x2="-734.03" y2="-191.37" xlink:href="#d"/><radialGradient id="g" cx="-561.06" cy="-534.84" r="132.95" gradientTransform="matrix(1, -0.07, 0.08, 0.99, 629.15, 519.58)" gradientUnits="userSpaceOnUse"><stop offset="0.29" stop-color="#2c58a5"/><stop offset="0.58" stop-color="#88afdd"/><stop offset="0.58" stop-color="#6690cb"/><stop offset="0.7" stop-color="#2c58a5"/></radialGradient><linearGradient id="h" x1="-557.66" y1="-478.36" x2="-510.52" y2="-478.36" gradientTransform="matrix(1, -0.07, 0.08, 0.99, 629.15, 519.58)" gradientUnits="userSpaceOnUse"><stop offset="0" stop-color="#4373b8"/><stop offset="0.24" stop-color="#4270b5"/><stop offset="0.44" stop-color="#3e68aa"/><stop offset="0.64" stop-color="#385a98"/><stop offset="0.82" stop-color="#30477f"/><stop offset="1" stop-color="#252e60"/></linearGradient><linearGradient id="i" x1="-774.48" y1="-148.84" x2="-774.48" y2="-193.4" gradientTransform="matrix(0.96, 0.28, -0.28, 0.96, 756.15, 463.09)" gradientUnits="userSpaceOnUse"><stop offset="0" stop-color="#2e5aa6"/><stop offset="0.79" stop-color="#d6e3f6"/><stop offset="1" stop-color="#85aadb"/></linearGradient></defs><g style="isolation:isolate"><circle cx="50.67" cy="50.67" r="50.67" fill="url(#a)"/><polygon points="100.69 41.73 97.67 41.96 72.04 66.92 74.45 67.86 100.69 41.73" fill="url(#b)"/><polygon points="100.69 41.73 97.67 41.96 72.04 66.92 74.45 67.86 100.69 41.73" fill="url(#c)"/><polygon points="100.41 41.76 74.26 67.79 74.45 67.86 100.69 41.73 100.41 41.76" fill="url(#d)" style="mix-blend-mode:screen"/><polygon points="96.57 70.68 98.84 70.51 103.72 77.3 101.12 76.94 96.57 70.68" fill="url(#e)"/><polygon points="103.72 77.3 98.84 70.51 98.56 70.53 103.39 77.26 103.72 77.3" fill="url(#f)" style="mix-blend-mode:screen"/><path d="M37.72,99.51c24.61,4.76,40.64-19.35,44.59-33.21-2.22.3-7.86,1.56-7.86,1.56l26.24-26.13,3,35.57L99,70.81C75.15,114.18,37.72,99.51,37.72,99.51Z" fill="url(#g)"/><path d="M82.31,66.3c-.59.08-1.43.23-2.34.41-4.5,13.26-20,35.8-42.25,32.8C62.33,104.27,78.36,80.16,82.31,66.3Z" fill="url(#h)"/><path d="M37.72,99.51c24.61,4.76,40.64-19.35,44.59-33.21C77.25,80.3,62.43,103.85,37.72,99.51Z" fill="url(#i)" style="mix-blend-mode:screen"/><path d="M47.9,31.71H64.26v5.06H53v3.57H63.49v5.07H53V49h11.3v5.07H47.9V31.71Z" fill="#fff"/><path d="M83.75,31.71v5.06H77.06V54.05H72V36.77H65.31V31.71Z" fill="#fff"/><path d="M32,56.94V69.68a4.6,4.6,0,1,0,9.17,0V56.94h5.07V69.68a10,10,0,0,1-3,7.43,9.9,9.9,0,0,1-13.24,0,10,10,0,0,1-3-7.43V56.94Z" fill="#fff"/><path d="M52.36,79.28H47.29V56.94H57a7.16,7.16,0,0,1,5.41,2.35,7.67,7.67,0,0,1,0,9.86A7.19,7.19,0,0,1,57,71.5h-4.6ZM57,66.43a1.81,1.81,0,0,0,1.6-.61,2.47,2.47,0,0,0,.54-1.6,2.52,2.52,0,0,0-.54-1.6A1.82,1.82,0,0,0,57,62h-4.6v4.42Z" fill="#fff"/><path d="M35.33,40.88v5.54h6v1.9a6.28,6.28,0,0,1-6.49,1.77A6.83,6.83,0,0,1,30.15,44a6.77,6.77,0,0,1,5.39-7.29,6.23,6.23,0,0,1,2.11,0,6.3,6.3,0,0,1,3.59,1.9l4-3.86a12.08,12.08,0,0,0-1.13-1,11.94,11.94,0,0,0-7.55-2.6,11.61,11.61,0,0,0-4.93,1.13,11.86,11.86,0,0,0-2.49,1.59,12.58,12.58,0,0,0-4.5,10.56,12.37,12.37,0,0,0,8.57,11A11.93,11.93,0,0,0,46.32,51l.53-.73V40.88Z" fill="#fff"/><path d="M45.49,21.7,38.7,30.29a12.25,12.25,0,0,0-8.09,1.09,12,12,0,0,0-4,3.31,12.21,12.21,0,0,0-1.54,2.59l-10.95.46L26.87,23.87Z" fill="#fff"/><line x1="19.08" y1="38.41" x2="19.08" y2="54.4" fill="#fff"/><rect x="18.85" y="38.41" width="0.46" height="15.99" fill="#fff"/><polygon points="19.41 54.4 18.75 54.4 18.32 52.41 19.84 52.41 19.41 54.4" fill="#fff"/></g></svg>