<svg width="109" height="103" viewBox="0 0 109 103" fill="none" xmlns="http://www.w3.org/2000/svg">
<path d="M53.39 81.6326C70.7262 81.6326 84.78 67.6118 84.78 50.3163C84.78 33.0208 70.7262 19 53.39 19C36.0538 19 22 33.0208 22 50.3163C22 67.6118 36.0538 81.6326 53.39 81.6326Z" fill="url(#paint0_linear)"/>
<path d="M86.6279 42.1183L84.6259 42.2627L67.5801 58.8032L69.1882 59.4289L86.6279 42.1183Z" fill="url(#paint1_linear)"/>
<path d="M86.6279 42.1183L84.6259 42.2627L67.5801 58.8032L69.1882 59.4289L86.6279 42.1183Z" fill="url(#paint2_linear)"/>
<path style="mix-blend-mode:screen" d="M86.444 42.1263L69.0605 59.3807L69.1892 59.4289L86.629 42.1183L86.444 42.1263Z" fill="url(#paint3_linear)"/>
<path d="M83.9141 61.314L85.4257 61.2017L88.674 65.7098L86.9453 65.4691L83.9141 61.314Z" fill="url(#paint4_linear)"/>
<path style="mix-blend-mode:screen" d="M88.6715 65.7098L85.4232 61.2017L85.2383 61.2177L88.4545 65.6857L88.6715 65.7098Z" fill="url(#paint5_linear)"/>
<path d="M44.7617 80.4133C61.1402 83.5738 71.7938 67.5788 74.415 58.4021C72.9436 58.6026 69.1887 59.4289 69.1887 59.4289L86.6284 42.1183L88.6707 65.7098L85.5188 61.4022C69.6791 90.1596 44.7617 80.4133 44.7617 80.4133Z" fill="url(#paint6_radial)"/>
<path d="M74.415 58.4021C74.021 58.4583 73.4662 58.5545 72.8551 58.6668C69.8721 67.4906 59.5401 82.4107 44.7617 80.4133C61.1402 83.5738 71.7938 67.5868 74.415 58.4021Z" fill="url(#paint7_linear)"/>
<path style="mix-blend-mode:screen" d="M44.7617 80.4133C61.1402 83.5739 71.7938 67.5788 74.415 58.4021C71.046 67.6831 61.2125 83.3011 44.7617 80.4133Z" fill="url(#paint8_linear)"/>
<path d="M41.6821 36.1421C42.6611 36.134 43.6318 36.3222 44.5365 36.6956C45.4456 37.0792 46.2665 37.6442 46.9486 38.3561L44.5365 40.6984C43.9771 40.1029 43.242 39.7011 42.4379 39.5513C41.6524 39.4043 40.8403 39.514 40.1223 39.8641C39.3657 40.2252 38.7394 40.8108 38.3292 41.5406C37.9005 42.2845 37.7016 43.1381 37.7573 43.9944C37.8131 44.8506 38.1212 45.6713 38.6428 46.3536C39.1438 47.0077 39.8343 47.4922 40.6208 47.7413C41.3156 47.9498 42.0566 47.9498 42.7515 47.7413C43.4543 47.5516 44.0878 47.1646 44.5767 46.6263V45.4712H40.9504V42.1021H47.9698V47.7734L47.6481 48.2226C46.7584 49.4508 45.5038 50.3685 44.0621 50.8457C42.6356 51.341 41.0865 51.3607 39.6479 50.9018C38.2004 50.4659 36.9282 49.5842 36.0136 48.383C35.0887 47.1754 34.5406 45.7228 34.4377 44.2065C34.3347 42.6902 34.6815 41.1771 35.4347 39.8561C36.1632 38.5411 37.2885 37.4885 38.6509 36.848C39.5952 36.3883 40.6313 36.147 41.6821 36.1421Z" fill="#509FD8"/>
<path d="M48.5332 39.5113V36.1422H59.4602V39.5113H51.9343V41.9178H58.9376V45.2708H51.9343V47.6773H59.4602V51.0463H48.5332V39.5113Z" fill="#4DAEE2"/>
<path d="M59.8867 36.1422H72.1725V39.5113H67.7101V50.9822H64.3331V39.5113H59.8867V36.1422Z" fill="#5BBBEF"/>
<path d="M34.4062 52.418H37.7832V60.8727C37.754 61.3289 37.8229 61.786 37.9851 62.2135C38.1473 62.641 38.3993 63.0289 38.724 63.3514C39.2945 63.8877 40.0551 64.1762 40.8386 64.1536C41.6196 64.1749 42.3771 63.8864 42.9452 63.3514C43.2728 63.0303 43.5277 62.643 43.6928 62.2155C43.8578 61.7879 43.9292 61.3301 43.902 60.8727V52.418H47.263V60.8727C47.2706 61.8296 47.0875 62.7785 46.7242 63.6642C46.3939 64.4818 45.8858 65.216 45.2368 65.814C44.6482 66.363 43.9569 66.791 43.2025 67.0734C41.6731 67.6295 39.9961 67.6295 38.4667 67.0734C37.7266 66.7863 37.0494 66.3586 36.4726 65.814C35.8236 65.216 35.3155 64.4818 34.9852 63.6642C34.6219 62.7785 34.4388 61.8296 34.4465 60.8727L34.4062 52.418Z" fill="#50A0D9"/>
<path d="M51.2364 62.0921V67.258H47.8594V52.418H54.2917C54.9902 52.41 55.6819 52.5551 56.3179 52.8432C56.9306 53.098 57.4796 53.4842 57.926 53.9742C58.7041 54.8912 59.1311 56.0537 59.1311 57.2551C59.1311 58.4565 58.7041 59.6189 57.926 60.5359C57.4796 61.026 56.9306 61.4121 56.3179 61.6669C55.6806 61.9511 54.9898 62.0961 54.2917 62.0921H51.2364ZM51.2364 58.723H54.2998C54.4978 58.7361 54.6963 58.7055 54.8811 58.6335C55.0659 58.5614 55.2326 58.4495 55.3692 58.3059C55.6103 58.0066 55.7359 57.6309 55.7229 57.247C55.7396 56.8613 55.6105 56.4834 55.3611 56.1882C55.225 56.0466 55.0594 55.9366 54.876 55.8659C54.6926 55.7953 54.4959 55.7656 54.2998 55.7791H51.2364V58.723Z" fill="#4DABE0"/>
<defs>
<linearGradient id="paint0_linear" x1="81.6374" y1="73.7441" x2="22" y2="36.7383" gradientUnits="userSpaceOnUse">
<stop stop-color="white"/>
<stop offset="1" stop-color="#F4F4F4"/>
</linearGradient>
<linearGradient id="paint1_linear" x1="68.6897" y1="51.5295" x2="88.8355" y2="49.8978" gradientUnits="userSpaceOnUse">
<stop stop-color="#3463AC"/>
<stop offset="1" stop-color="#1E2A4E"/>
</linearGradient>
<linearGradient id="paint2_linear" x1="68.6897" y1="51.5295" x2="88.8355" y2="49.8978" gradientUnits="userSpaceOnUse">
<stop stop-color="#0C4597"/>
<stop offset="0.32" stop-color="#3463AC"/>
<stop offset="0.66" stop-color="#A4C3E7"/>
<stop offset="1" stop-color="#3463AC"/>
</linearGradient>
<linearGradient id="paint3_linear" x1="71.2209" y1="49.5728" x2="82.8642" y2="52.8898" gradientUnits="userSpaceOnUse">
<stop stop-color="#85AADB"/>
<stop offset="0.56" stop-color="#D6E3F6"/>
<stop offset="0.79" stop-color="white"/>
<stop offset="1" stop-color="#85AADB"/>
</linearGradient>
<linearGradient id="paint4_linear" x1="85.7177" y1="63.6425" x2="90.0761" y2="63.2895" gradientUnits="userSpaceOnUse">
<stop stop-color="#213A74"/>
<stop offset="1" stop-color="#1D4A9A"/>
</linearGradient>
<linearGradient id="paint5_linear" x1="-2419.71" y1="-471.749" x2="-2400.27" y2="-471.749" gradientUnits="userSpaceOnUse">
<stop stop-color="#85AADB"/>
<stop offset="0.56" stop-color="#D6E3F6"/>
<stop offset="0.79" stop-color="white"/>
<stop offset="1" stop-color="#85AADB"/>
</linearGradient>
<radialGradient id="paint6_radial" cx="0" cy="0" r="1" gradientUnits="userSpaceOnUse" gradientTransform="translate(40.5797 33.8012) rotate(-4.03502) scale(87.8501 87.7081)">
<stop offset="0.29" stop-color="#2C58A5"/>
<stop offset="0.58" stop-color="#6690CB"/>
<stop offset="0.7" stop-color="#2C58A5"/>
</radialGradient>
<linearGradient id="paint7_linear" x1="45.8243" y1="70.7772" x2="76.8742" y2="68.2623" gradientUnits="userSpaceOnUse">
<stop stop-color="#4373B8"/>
<stop offset="0.24" stop-color="#4270B5"/>
<stop offset="0.44" stop-color="#3E68AA"/>
<stop offset="0.64" stop-color="#385A98"/>
<stop offset="0.82" stop-color="#30477F"/>
<stop offset="1" stop-color="#252E60"/>
</linearGradient>
<linearGradient id="paint8_linear" x1="54.875" y1="83.8578" x2="63.0439" y2="55.7842" gradientUnits="userSpaceOnUse">
<stop stop-color="#2E5AA6"/>
<stop offset="0.79" stop-color="#D6E3F6"/>
<stop offset="1" stop-color="#85AADB"/>
</linearGradient>
</defs>
</svg>
